<?xml version="1.0" encoding="iso-8859-1"?>
<!-- Generator: Adobe Illustrator 19.0.0, SVG Export Plug-In . SVG Version: 6.00 Build 0)  -->
<svg version="1.1" id="Layer_1" xmlns="http://www.w3.org/2000/svg" xmlns:xlink="http://www.w3.org/1999/xlink" x="0px" y="0px"
	 viewBox="0 0 511.998 511.998" style="enable-background:new 0 0 511.998 511.998;" xml:space="preserve">
<g>
	<g>
		<g>
			<path d="M252.792,66.315c1.023,0.442,2.116,0.663,3.207,0.663c1.092,0,2.185-0.221,3.208-0.663
				c13.109-5.667,21.58-18.551,21.58-32.825c0-14.276-8.471-27.162-21.581-32.827c-2.047-0.883-4.367-0.883-6.414,0
				c-13.111,5.664-21.583,18.55-21.583,32.827C231.21,47.766,239.681,60.649,252.792,66.315z M255.999,17.26
				c5.329,3.6,8.619,9.645,8.619,16.229c0,6.584-3.292,12.628-8.619,16.229c-5.329-3.6-8.621-9.644-8.621-16.229
				C247.378,26.905,250.67,20.859,255.999,17.26z"/>
			<circle cx="300.791" cy="211.038" r="10.497"/>
			<circle cx="206.226" cy="215.348" r="10.497"/>
			<path d="M238.032,199.044l13.75,8.398c1.315,0.805,2.77,1.187,4.208,1.187c2.723,0,5.382-1.377,6.906-3.87
				c2.327-3.811,1.125-8.787-2.685-11.113l-13.749-8.398c-3.811-2.327-8.785-1.125-11.113,2.684
				C233.022,191.739,234.223,196.716,238.032,199.044z"/>
			<path d="M413.693,307.383c-0.687-20.196-5.185-39.439-12.799-57.034c-0.059-0.163-0.1-0.33-0.17-0.491
				c-15.422-35.403-42.828-63.087-76.233-79.187c-0.066-0.032-0.131-0.065-0.197-0.096c-0.992-0.476-1.989-0.943-2.991-1.399
				c-0.569-0.26-1.143-0.511-1.716-0.764c-1.054-0.464-2.11-0.922-3.175-1.364c-1.108-0.461-2.221-0.911-3.341-1.347
				c-0.522-0.203-1.046-0.401-1.571-0.599c-1.352-0.51-2.712-1.003-4.081-1.477c-0.179-0.062-0.356-0.128-0.535-0.188
				c-1.674-0.572-3.363-1.111-5.062-1.628c-0.195-0.059-0.392-0.117-0.587-0.175c-3.506-1.051-7.062-1.985-10.664-2.794
				c-0.04-0.009-0.08-0.017-0.12-0.026c-1.811-0.405-3.633-0.779-5.467-1.121c-0.04-0.007-0.08-0.016-0.12-0.023
				c-0.627-0.116-1.255-0.229-1.884-0.338v-21.086c0-4.465-3.619-8.084-8.085-8.084c-4.465,0-8.084,3.619-8.084,8.084v19.146
				c-1.415-0.096-2.836-0.173-4.261-0.231c-0.343-0.014-0.684-0.032-1.027-0.044c-0.159-0.006-0.318-0.008-0.478-0.013
				c-1.678-0.053-3.359-0.089-5.049-0.089c-1.693,0-3.378,0.036-5.058,0.089c-0.156,0.005-0.311,0.007-0.467,0.013
				c-0.344,0.012-0.687,0.03-1.03,0.044c-1.426,0.059-2.847,0.135-4.262,0.231V92.777c0-1.53,0-3.623,4.884-5.186
				c1.299-0.399,6.01-1.536,12.626,0.268c4.122,1.564,4.122,3.497,4.122,4.918v15.965c0,4.466,3.619,8.085,8.084,8.085
				c4.466,0,8.085-3.619,8.085-8.085V92.777c0-9.535-5.348-16.717-15.058-20.221c-0.178-0.065-0.357-0.123-0.54-0.175
				c-10.72-3.037-18.991-1.188-22.148-0.222c-10.31,3.299-16.222,10.813-16.222,20.617v64.557c-0.628,0.109-1.254,0.221-1.879,0.337
				c-0.044,0.008-0.088,0.017-0.132,0.025c-1.828,0.341-3.646,0.714-5.451,1.117c-0.044,0.01-0.088,0.019-0.132,0.029
				c-3.598,0.807-7.149,1.74-10.65,2.79c-0.201,0.06-0.403,0.119-0.604,0.18c-1.695,0.515-3.379,1.053-5.049,1.624
				c-0.188,0.064-0.374,0.134-0.562,0.198c-1.359,0.47-2.708,0.959-4.049,1.465c-0.531,0.2-1.062,0.401-1.591,0.606
				c-1.106,0.431-2.206,0.875-3.3,1.33c-1.085,0.449-2.161,0.916-3.235,1.389c-0.56,0.248-1.122,0.494-1.678,0.748
				c-1.009,0.459-2.012,0.928-3.011,1.408c-0.053,0.026-0.106,0.052-0.159,0.078c-33.418,16.098-60.834,43.788-76.259,79.201
				c-0.066,0.151-0.103,0.307-0.159,0.46c-7.623,17.604-12.126,36.858-12.813,57.065c-10.13,2.09-17.771,11.078-17.771,21.819v1.181
				c0,10.61,7.458,19.505,17.403,21.735l35.952,153.639c0.854,3.656,4.116,6.243,7.871,6.243h43.347h45.035h51.718h45.035h43.349
				c3.756,0,7.017-2.587,7.871-6.243l20.302-86.767c1.017-4.348-1.683-8.696-6.03-9.714c-4.352-1.022-8.694,1.681-9.713,6.029
				L363.83,495.83h-27.593l20.791-143.171h40.303l-8.802,37.61c-1.016,4.348,1.684,8.696,6.031,9.713
				c4.343,1.014,8.695-1.683,9.713-6.03l9.791-41.838c9.945-2.23,17.402-11.124,17.402-21.735V329.2
				C431.464,318.461,423.824,309.473,413.693,307.383z M197.763,183.717c0.002-0.001,0.004-0.002,0.006-0.003
				c0.958-0.434,1.924-0.855,2.894-1.268c0.252-0.107,0.505-0.212,0.758-0.318c0.811-0.34,1.625-0.675,2.444-1
				c0.517-0.205,1.038-0.402,1.558-0.6c0.602-0.231,1.203-0.466,1.809-0.689c1.183-0.434,2.371-0.855,3.567-1.257
				c0.122-0.041,0.245-0.079,0.367-0.119c1.135-0.379,2.275-0.745,3.422-1.095c0.208-0.064,0.418-0.124,0.627-0.187
				c1.08-0.325,2.163-0.638,3.252-0.937c0.205-0.056,0.41-0.112,0.615-0.167c1.133-0.306,2.271-0.599,3.414-0.877
				c0.142-0.035,0.284-0.07,0.427-0.104c4.979-1.195,10.047-2.116,15.182-2.768c0.002,0,0.004,0,0.006,0
				c2.989-0.377,5.981-0.661,8.955-0.852c0.029-0.002,0.058-0.004,0.086-0.005c1.342-0.085,2.679-0.146,4.012-0.193
				c0.2-0.007,0.399-0.017,0.599-0.023c1.42-0.044,2.834-0.069,4.238-0.069c1.404,0,2.819,0.025,4.239,0.069
				c0.198,0.006,0.395,0.016,0.592,0.023c1.337,0.047,2.677,0.108,4.023,0.193c0.024,0.001,0.049,0.003,0.073,0.005
				c2.977,0.191,5.971,0.475,8.961,0.852c0.002,0,0.005,0,0.007,0c5.144,0.653,10.22,1.576,15.207,2.774
				c0.121,0.029,0.242,0.059,0.363,0.089c1.17,0.284,2.335,0.584,3.495,0.898c0.18,0.049,0.359,0.097,0.539,0.146
				c1.124,0.308,2.243,0.632,3.357,0.968c0.175,0.053,0.351,0.103,0.526,0.157c1.205,0.368,2.403,0.752,3.596,1.151
				c0.065,0.022,0.132,0.042,0.197,0.064c1.215,0.409,2.422,0.836,3.623,1.277c0.535,0.197,1.064,0.405,1.596,0.608
				c0.594,0.226,1.189,0.452,1.78,0.686c0.774,0.308,1.543,0.625,2.31,0.946c0.302,0.126,0.604,0.251,0.905,0.379
				c0.931,0.397,1.858,0.801,2.779,1.218c0.047,0.021,0.095,0.043,0.142,0.064c22.002,9.978,41.016,25.424,55.304,44.589
				c-4.49-2.34-9.21-3.528-14.075-3.528c-7.254,0-12.883,2.687-15.592,4.288c-0.1,0.058-0.197,0.118-0.293,0.181l-26.404,17.156
				c-1.125,0.641-3.284,1.658-6.039,1.93c-0.033,0.003-0.066,0.006-0.1,0.009c-0.154,0.015-0.307,0.025-0.464,0.036l-0.036,0.001
				c-0.078,0.002-0.156,0.005-0.234,0.009l-0.549,0.012l-0.544-0.012c-0.07-0.004-0.216-0.01-0.305-0.012
				c-0.144-0.01-0.288-0.02-0.43-0.034c-0.037-0.003-0.077-0.007-0.115-0.011c-2.759-0.276-4.926-1.31-5.978-1.904
				c-0.162-0.091-0.327-0.178-0.496-0.258c-0.373-0.179-0.729-0.365-1.06-0.556l-24.003-15.594
				c-0.019-0.012-0.036-0.025-0.056-0.035c-5.214-3.375-10.786-5.125-16.624-5.202c-0.123-0.003-0.252-0.002-0.385-0.001
				c-5.818,0.054-11.428,1.805-16.677,5.202c-0.02,0.012-0.038,0.024-0.056,0.036l-24.002,15.594
				c-0.252,0.145-0.615,0.342-1.069,0.56c-0.166,0.08-0.329,0.164-0.488,0.254c-1.051,0.595-3.218,1.628-5.977,1.904
				c-0.038,0.004-0.078,0.008-0.115,0.011c-0.152,0.015-0.306,0.025-0.458,0.036l-0.036,0.001c-0.077,0.002-0.155,0.005-0.233,0.009
				l-0.549,0.012l-0.551-0.012c-0.054-0.002-0.174-0.007-0.228-0.009l-0.046-0.002c-0.154-0.01-0.306-0.021-0.456-0.035
				c-0.034-0.003-0.071-0.006-0.105-0.009c-2.757-0.273-4.915-1.289-6.034-1.928l-26.408-17.158
				c-0.097-0.063-0.193-0.123-0.293-0.181c-2.709-1.602-8.34-4.287-15.591-4.287c-4.864,0-9.582,1.187-14.072,3.525
				C156.692,209.152,175.732,193.694,197.763,183.717z M148.167,495.833l-33.501-143.171h40.305l20.789,143.171H148.167z
				 M192.098,495.833l-20.789-143.171h42.723l7.584,143.171H192.098z M274.189,495.832h-36.383l-7.584-143.171h51.55
				L274.189,495.832z M319.896,495.832h-29.518l7.585-143.171h42.725L319.896,495.832z M415.291,330.383
				c0,3.369-2.74,6.11-6.109,6.11h-1.664h-57.488v0.001h-59.735h-68.598h-59.733h-57.493h-1.663c-3.369,0-6.109-2.741-6.109-6.11
				v-1.181c0-3.368,2.74-6.109,6.109-6.109h227.072c4.466,0,8.085-3.619,8.085-8.085s-3.619-8.085-8.085-8.085H114.499
				c0.701-17.044,4.426-33.32,10.655-48.305l23.099-15.007c2.688-1.746,5.448-2.631,8.208-2.631c3.396,0,6.111,1.316,7.238,1.964
				l26.418,17.164c0.104,0.068,0.208,0.132,0.314,0.193c2.731,1.604,7.188,3.627,12.898,4.167c0.037,0.004,0.072,0.007,0.107,0.01
				c0.323,0.029,0.65,0.054,0.984,0.074c0.046,0.003,0.106,0.006,0.152,0.008l0.234,0.009c0.284,0.015,0.566,0.023,0.766,0.026
				c0.401,0.007,0.885,0.006,1.104,0.002c0.288-0.005,0.571-0.014,0.856-0.028l0.244-0.01c0.05-0.002,0.099-0.004,0.146-0.007
				c0.324-0.021,0.646-0.044,0.964-0.073c0.043-0.003,0.085-0.007,0.128-0.011c5.328-0.506,9.561-2.315,12.243-3.801
				c0.763-0.373,1.496-0.768,2.182-1.173c0.102-0.059,0.201-0.119,0.298-0.183l24.114-15.667c0.019-0.012,0.037-0.024,0.056-0.035
				c2.688-1.747,5.336-2.607,8.03-2.629h0.032c0.007,0,0.015,0,0.021,0c2.758,0.022,5.405,0.882,8.094,2.629
				c0.018,0.011,0.037,0.023,0.055,0.035l24.113,15.667c0.099,0.064,0.198,0.124,0.299,0.183c0.693,0.411,1.428,0.805,2.187,1.175
				c2.683,1.484,6.915,3.293,12.239,3.799c0.042,0.004,0.084,0.008,0.128,0.011c0.317,0.029,0.642,0.053,0.97,0.073
				c0.044,0.003,0.089,0.005,0.135,0.007c0.108,0.005,0.219,0.01,0.329,0.014c0.256,0.012,0.505,0.021,0.686,0.022
				c0.201,0.004,0.399,0.005,0.6,0.005c0.199,0,0.395-0.001,0.508-0.003c0.289-0.005,0.569-0.014,0.855-0.028l0.243-0.01
				c0.048-0.002,0.095-0.004,0.143-0.007c0.333-0.021,0.657-0.045,0.981-0.074c0.036-0.003,0.072-0.006,0.11-0.01
				c5.706-0.539,10.163-2.562,12.897-4.165c0.107-0.063,0.214-0.127,0.317-0.195l26.414-17.164c1.129-0.647,3.843-1.965,7.24-1.965
				c2.771,0,5.433,0.846,8.131,2.582c0.063,0.042,0.127,0.083,0.192,0.124l22.986,14.934c6.23,14.984,9.953,31.259,10.654,48.303
				H357.36c-4.465,0-8.084,3.619-8.084,8.085s3.619,8.085,8.083,8.085h51.822c3.369,0,6.109,2.741,6.109,6.109V330.383z"/>
		</g>
	</g>
</g>
<g>
</g>
<g>
</g>
<g>
</g>
<g>
</g>
<g>
</g>
<g>
</g>
<g>
</g>
<g>
</g>
<g>
</g>
<g>
</g>
<g>
</g>
<g>
</g>
<g>
</g>
<g>
</g>
<g>
</g>
</svg>
