<?xml version="1.0" encoding="iso-8859-1"?>
<!-- Generator: Adobe Illustrator 19.0.0, SVG Export Plug-In . SVG Version: 6.00 Build 0)  -->
<svg version="1.1" id="Layer_1" xmlns="http://www.w3.org/2000/svg" xmlns:xlink="http://www.w3.org/1999/xlink" x="0px" y="0px"
	 viewBox="0 0 512 512" style="enable-background:new 0 0 512 512;" xml:space="preserve">
<g>
	<g>
		<g>
			<path d="M487.747,424.691h-31.566v-34.628c0-4.465-3.619-8.084-8.085-8.084s-8.085,3.619-8.085,8.084v34.629H71.988V349.99
				l18.896,12.277c5.844,3.796,12.073,5.723,18.518,5.723c7.773,0,13.825-2.872,16.74-4.583c0.104-0.062,0.209-0.127,0.312-0.192
				l23.634-15.355c0.063-0.04,0.128-0.082,0.189-0.123c2.627-1.69,5.216-2.513,7.912-2.513c3.3,0,5.941,1.278,7.043,1.91
				l25.956,16.863c0.102,0.066,0.208,0.133,0.315,0.194c2.697,1.583,7.097,3.58,12.637,4.102c0.06,0.006,0.123,0.012,0.185,0.018
				c0.331,0.031,0.67,0.056,1.034,0.076l0.351,0.016c0.259,0.012,0.518,0.023,0.799,0.027l0.531,0.003l0.55-0.003
				c0.262-0.004,0.523-0.016,0.781-0.027l0.38-0.018c0.334-0.018,0.666-0.043,0.994-0.074c0.034-0.003,0.067-0.006,0.101-0.009
				c5.26-0.497,9.44-2.283,12.089-3.751c0.737-0.359,1.455-0.744,2.136-1.145c0.105-0.062,0.21-0.127,0.311-0.192l23.75-15.431
				c2.616-1.7,5.194-2.538,7.815-2.56h0.03c0.006,0,0.013,0,0.02,0c2.685,0.021,5.263,0.859,7.879,2.56
				c0.018,0.011,0.035,0.021,0.052,0.033l23.699,15.397c0.102,0.066,0.206,0.131,0.312,0.192c0.685,0.402,1.4,0.786,2.134,1.146
				c2.649,1.467,6.83,3.253,12.046,3.746c0.049,0.004,0.1,0.009,0.15,0.015c0.326,0.03,0.659,0.055,1.014,0.074
				c0.138,0.009,0.274,0.014,0.412,0.018c0.239,0.01,0.48,0.021,0.742,0.025l0.532,0.003l0.549-0.003
				c0.244-0.004,0.484-0.015,0.724-0.025c0.138-0.005,0.277-0.01,0.433-0.019c0.339-0.018,0.673-0.044,1.003-0.075
				c0.032-0.003,0.064-0.006,0.095-0.009c5.637-0.531,10.036-2.528,12.733-4.111c0.107-0.062,0.213-0.128,0.316-0.194l25.953-16.865
				c1.102-0.63,3.743-1.908,7.043-1.908c2.722,0,5.333,0.838,7.988,2.561l23.747,15.43c0.103,0.066,0.207,0.131,0.312,0.192
				c2.915,1.711,8.966,4.583,16.741,4.583c6.444,0,12.674-1.927,18.518-5.723l18.896-12.278v14.204c0,4.465,3.619,8.084,8.085,8.084
				s8.085-3.619,8.085-8.084v-29.097v-14.959c0-17.949-14.604-32.552-32.552-32.552h-13.086v-36.571
				c0-4.464-3.619-8.084-8.084-8.084c-4.465,0-8.084,3.62-8.084,8.084v36.571H117.624v-73.417l22.223,14.439
				c5.844,3.797,12.074,5.722,18.517,5.722c7.774,0,13.826-2.871,16.741-4.582c0.105-0.061,0.21-0.126,0.312-0.192l23.75-15.431
				c2.652-1.723,5.265-2.561,7.985-2.561c3.301,0,5.942,1.279,7.042,1.91l25.956,16.863c0.104,0.067,0.209,0.133,0.315,0.195
				c2.698,1.582,7.098,3.58,12.732,4.112c0.035,0.003,0.071,0.006,0.106,0.009c0.331,0.031,0.67,0.056,1.023,0.076l0.372,0.017
				c0.249,0.011,0.5,0.021,0.742,0.025l0.564,0.004l0.549-0.003c0.256-0.005,0.507-0.014,0.769-0.026l0.375-0.017
				c0.335-0.02,0.667-0.044,0.996-0.075c0.039-0.003,0.077-0.006,0.117-0.01c5.634-0.533,10.033-2.531,12.731-4.112
				c0.107-0.063,0.212-0.127,0.315-0.195l25.956-16.863c1.099-0.631,3.741-1.91,7.042-1.91c2.721,0,5.333,0.837,7.984,2.561
				c0.029,0.019,0.06,0.038,0.089,0.057l23.662,15.375c0.102,0.066,0.206,0.131,0.312,0.192c2.915,1.711,8.966,4.581,16.74,4.582
				c0.002,0,0.002,0,0.003,0c6.441,0,12.672-1.925,18.516-5.722l22.223-14.439v10.616c0,4.465,3.619,8.084,8.084,8.084
				s8.084-3.62,8.084-8.084v-25.508v-14.299c0-1.016-0.062-2.018-0.173-3.006c-0.038-0.34-0.079-0.68-0.13-1.018
				c-0.02-0.131-0.046-0.261-0.068-0.392c-0.05-0.301-0.101-0.602-0.161-0.901c-0.026-0.13-0.058-0.257-0.086-0.386
				c-0.065-0.297-0.131-0.594-0.205-0.888c-0.033-0.129-0.07-0.256-0.105-0.384c-0.059-0.22-0.115-0.441-0.18-0.659
				c-0.013-0.045-0.031-0.087-0.045-0.131c-0.178-0.585-0.377-1.161-0.594-1.728c-0.058-0.152-0.118-0.303-0.179-0.454
				c-0.229-0.57-0.472-1.133-0.739-1.683c-0.033-0.068-0.07-0.134-0.104-0.202c-0.272-0.548-0.563-1.084-0.87-1.61
				c-0.038-0.065-0.074-0.131-0.113-0.195c-0.348-0.584-0.719-1.152-1.109-1.706c-0.01-0.015-0.021-0.029-0.031-0.044
				c-4.428-6.268-11.477-10.554-19.542-11.246c-0.096-0.008-0.192-0.015-0.288-0.022c-0.667-0.05-1.339-0.084-2.018-0.084h-36.192
				v-13.254c0-10.325-8.399-18.725-18.725-18.725h-38.424V98.312c0-11.862-6.715-20.816-18.908-25.213
				c-0.178-0.064-0.356-0.122-0.537-0.172c-5.206-1.477-10.458-2.225-15.611-2.225c-6.353,0-11.095,1.16-13.456,1.882
				c-13.166,4.213-20.418,13.351-20.418,25.727v27.947H183.11c-10.325,0-18.726,8.4-18.726,18.725v13.254h-36.189h-0.001
				c-0.68,0-1.352,0.034-2.019,0.084c-0.095,0.007-0.191,0.013-0.286,0.022c-8.06,0.692-15.106,4.972-19.534,11.235
				c-0.016,0.023-0.032,0.045-0.049,0.068c-0.384,0.547-0.75,1.107-1.094,1.683c-0.046,0.076-0.088,0.155-0.133,0.232
				c-0.296,0.508-0.577,1.025-0.839,1.553c-0.041,0.083-0.086,0.163-0.127,0.247c-0.261,0.538-0.498,1.089-0.723,1.647
				c-0.067,0.166-0.133,0.331-0.197,0.498c-0.211,0.554-0.405,1.115-0.579,1.686c-0.016,0.052-0.037,0.101-0.053,0.153
				c-0.071,0.238-0.132,0.48-0.196,0.721c-0.028,0.103-0.057,0.205-0.084,0.308c-0.078,0.307-0.147,0.616-0.214,0.926
				c-0.026,0.12-0.055,0.239-0.08,0.359c-0.061,0.303-0.113,0.608-0.164,0.914c-0.021,0.127-0.047,0.253-0.066,0.381
				c-0.062,0.409-0.114,0.819-0.157,1.231c-0.002,0.021-0.006,0.043-0.008,0.064c0,0.003-0.001,0.007-0.001,0.01
				c-0.023,0.229-0.035,0.46-0.052,0.69c-0.017,0.221-0.039,0.44-0.05,0.663c-0.023,0.455-0.035,0.911-0.035,1.365v14.299v88.31
				H88.37c-17.949,0-32.552,14.604-32.552,32.552v14.959v89.594H24.253C10.881,424.692,0,435.571,0,448.943
				c0,12.817,9.996,23.336,22.6,24.188l39.878,36.73c1.492,1.375,3.446,2.138,5.476,2.138h376.095c2.029,0,3.983-0.763,5.476-2.138
				l39.878-36.73C502.004,472.279,512,461.76,512,448.943C512,435.571,501.119,424.691,487.747,424.691z M237.703,98.312
				c0-3.655,1.09-7.741,9.078-10.297c1.125-0.344,4.218-1.145,8.627-1.145c3.571,0,7.244,0.516,10.922,1.534
				c6.993,2.602,7.966,6.297,7.966,9.908v27.947h-36.592V98.312z M180.553,144.984c0-1.41,1.146-2.555,2.557-2.555h46.499
				c0.003,0,0.006,0,0.01,0h52.762c0.003,0,0.006,0,0.01,0h46.499c1.409,0,2.555,1.145,2.555,2.555v13.254H180.553V144.984z
				 M117.623,184.974c0-0.728,0.074-1.439,0.215-2.126c0.001-0.005,0.003-0.01,0.004-0.016c0.138-0.666,0.34-1.309,0.597-1.924
				c0.017-0.04,0.035-0.08,0.053-0.12c0.112-0.26,0.235-0.514,0.368-0.762c0.029-0.054,0.057-0.108,0.087-0.161
				c0.129-0.232,0.267-0.457,0.413-0.678c0.037-0.056,0.072-0.114,0.11-0.17c0.154-0.225,0.319-0.442,0.489-0.654
				c0.034-0.042,0.064-0.086,0.098-0.127c0.187-0.225,0.386-0.44,0.59-0.649c0.132-0.134,0.271-0.261,0.41-0.388
				c0.078-0.071,0.154-0.144,0.234-0.213c0.163-0.14,0.331-0.275,0.502-0.405c0.056-0.043,0.113-0.085,0.17-0.127
				c0.191-0.14,0.386-0.275,0.586-0.402c0.024-0.015,0.049-0.029,0.073-0.044c0.672-0.418,1.391-0.762,2.144-1.023
				c0.029-0.01,0.058-0.022,0.087-0.032c0.195-0.066,0.395-0.121,0.595-0.175c0.116-0.031,0.232-0.063,0.349-0.09
				c0.167-0.039,0.336-0.074,0.506-0.106c0.173-0.031,0.349-0.057,0.525-0.08c0.132-0.018,0.263-0.037,0.397-0.049
				c0.318-0.029,0.639-0.049,0.965-0.049c0.002,0,0.004,0,0.005,0h44.275v0.002h167.059h44.276c0.328,0,0.651,0.02,0.971,0.049
				c0.132,0.012,0.263,0.032,0.394,0.049c0.177,0.023,0.353,0.049,0.527,0.081c0.169,0.031,0.337,0.066,0.504,0.105
				c0.118,0.028,0.235,0.059,0.352,0.091c0.199,0.054,0.397,0.109,0.592,0.174c0.031,0.01,0.061,0.023,0.091,0.034
				c0.757,0.263,1.48,0.609,2.155,1.031c0.017,0.011,0.035,0.021,0.053,0.032c0.206,0.131,0.407,0.27,0.604,0.414
				c0.049,0.036,0.097,0.072,0.145,0.109c0.18,0.136,0.355,0.277,0.526,0.425c0.064,0.056,0.126,0.115,0.189,0.172
				c0.155,0.14,0.309,0.281,0.455,0.43c0.127,0.13,0.246,0.267,0.366,0.403c0.127,0.143,0.25,0.289,0.369,0.439
				c0.144,0.183,0.286,0.367,0.418,0.559c0.052,0.075,0.099,0.153,0.149,0.23c0.129,0.199,0.254,0.401,0.37,0.609
				c0.041,0.073,0.08,0.146,0.119,0.22c0.119,0.225,0.23,0.454,0.332,0.688c0.027,0.062,0.056,0.124,0.082,0.187
				c0.113,0.273,0.216,0.552,0.306,0.835c0.009,0.028,0.02,0.055,0.028,0.082c0.092,0.298,0.169,0.603,0.235,0.911
				c0.007,0.031,0.017,0.062,0.023,0.093c0.07,0.341,0.123,0.687,0.159,1.038c0.035,0.364,0.055,0.727,0.055,1.079v9.911
				l-31.03,20.163c-3.18,2.064-6.445,3.111-9.707,3.111h-0.001c-3.831,0-6.868-1.389-8.416-2.275l-23.577-15.32
				c-0.031-0.021-0.063-0.041-0.096-0.061c-5.254-3.391-10.872-5.11-16.7-5.11c-7.157,0-12.716,2.651-15.392,4.23
				c-0.101,0.06-0.198,0.12-0.295,0.183l-25.945,16.858c-1.092,0.622-3.191,1.609-5.869,1.875c-0.028,0.002-0.057,0.005-0.085,0.008
				c-0.164,0.015-0.331,0.028-0.481,0.036l-0.781,0.021l-0.629-0.015c-0.002,0-0.134-0.006-0.137-0.006
				c-0.169-0.009-0.335-0.021-0.499-0.037c-0.026-0.003-0.054-0.006-0.08-0.008c-2.68-0.265-4.78-1.253-5.873-1.875l-25.946-16.858
				c-0.097-0.063-0.194-0.123-0.295-0.183c-2.676-1.579-8.234-4.23-15.392-4.23c-5.863,0-11.514,1.74-16.796,5.172l-23.578,15.32
				c-1.549,0.887-4.585,2.274-8.414,2.274c-3.263,0-6.529-1.047-9.708-3.111l-31.03-20.163V184.974z M88.37,303.754h21.17h292.919
				h21.17c9.033,0,16.383,7.35,16.383,16.384v10.569l-27.703,18.002c-3.178,2.065-6.445,3.111-9.709,3.111
				c-3.83,0-6.865-1.387-8.413-2.274l-23.58-15.32c-5.282-3.432-10.932-5.171-16.795-5.171c-7.158,0-12.716,2.65-15.392,4.231
				c-0.1,0.058-0.198,0.118-0.296,0.182l-25.942,16.857c-1.081,0.615-3.153,1.59-5.884,1.875c-0.033,0.003-0.068,0.007-0.102,0.01
				c-0.16,0.016-0.32,0.026-0.554,0.038c-0.038,0.001-0.073,0.003-0.109,0.004l-0.569,0.014l-0.569-0.014
				c-0.038-0.001-0.142-0.004-0.177-0.005c-0.163-0.011-0.325-0.022-0.484-0.037c-0.039-0.003-0.079-0.008-0.117-0.011
				c-2.688-0.267-4.803-1.274-5.828-1.854c-0.159-0.09-0.32-0.174-0.483-0.253c-0.362-0.173-0.713-0.357-1.045-0.547l-23.577-15.318
				c-0.018-0.013-0.038-0.025-0.059-0.037c-5.141-3.327-10.636-5.054-16.401-5.132c-0.125-0.004-0.257-0.004-0.393-0.001
				c-5.765,0.056-11.319,1.795-16.513,5.17l-23.577,15.318c-0.329,0.188-0.681,0.373-1.045,0.547
				c-0.165,0.079-0.326,0.164-0.485,0.254c-1.022,0.578-3.127,1.581-5.834,1.854c-0.035,0.003-0.073,0.007-0.109,0.01
				c-0.159,0.016-0.321,0.026-0.55,0.038c-0.037,0.001-0.073,0.003-0.11,0.004l-0.57,0.014l-0.57-0.014
				c-0.036-0.001-0.142-0.004-0.177-0.005c-0.163-0.011-0.325-0.022-0.483-0.037c-0.037-0.003-0.074-0.007-0.11-0.01
				c-2.682-0.264-4.783-1.253-5.878-1.875l-25.945-16.857c-0.097-0.064-0.195-0.124-0.295-0.183c-2.676-1.58-8.233-4.23-15.392-4.23
				c-5.84,0-11.471,1.727-16.734,5.132c-0.021,0.013-0.042,0.026-0.063,0.04l-23.578,15.319c-1.548,0.888-4.584,2.274-8.412,2.274
				c-3.265,0-6.531-1.046-9.709-3.111l-27.704-18.002v-10.569h-0.004C71.988,311.104,79.336,303.754,88.37,303.754z
				 M487.747,457.027H337.383c-4.465,0-8.084,3.619-8.084,8.084s3.619,8.084,8.084,8.084h128.084l-24.577,22.637H71.11
				l-24.578-22.637h262.826c4.466,0,8.085-3.619,8.085-8.084c0-4.465-3.619-8.084-8.085-8.084H24.253
				c-4.458,0-8.085-3.626-8.085-8.084s3.627-8.085,8.085-8.085h39.649h384.193h39.651c4.458,0,8.085,3.627,8.085,8.085
				S492.205,457.027,487.747,457.027z"/>
			<path d="M252.793,66.315c1.023,0.442,2.116,0.663,3.207,0.663s2.184-0.221,3.207-0.663c13.11-5.665,21.582-18.55,21.582-32.825
				c0-14.275-8.472-27.16-21.582-32.826c-2.047-0.884-4.367-0.884-6.414,0c-13.111,5.666-21.583,18.551-21.583,32.826
				C231.21,47.765,239.682,60.65,252.793,66.315z M256,17.26c5.328,3.6,8.62,9.645,8.62,16.229s-3.292,12.63-8.62,16.229
				c-5.329-3.599-8.621-9.644-8.621-16.229C247.379,26.905,250.671,20.86,256,17.26z"/>
			<circle cx="176.497" cy="264.525" r="10.497"/>
			<circle cx="282.124" cy="247.285" r="10.497"/>
			<circle cx="353.193" cy="258.005" r="10.498"/>
			<path d="M315.704,261.049l-14.586,6.849c-4.041,1.897-5.779,6.714-3.881,10.754c1.377,2.933,4.285,4.65,7.323,4.65
				c1.149,0,2.32-0.247,3.431-0.768l14.585-6.849c4.042-1.898,5.78-6.713,3.882-10.754
				C324.56,260.89,319.748,259.153,315.704,261.049z"/>
			<path d="M216.344,246.053c-3.81-2.326-8.785-1.125-11.112,2.685c-2.329,3.81-1.126,8.785,2.685,11.113l13.751,8.398
				c1.315,0.804,2.77,1.186,4.206,1.186c2.724,0,5.383-1.377,6.906-3.871c2.328-3.81,1.125-8.786-2.685-11.113L216.344,246.053z"/>
			<circle cx="320.104" cy="401.312" r="10.497"/>
			<circle cx="214.466" cy="384.073" r="10.497"/>
			<circle cx="143.397" cy="394.792" r="10.497"/>
			<path d="M180.889,397.836c-4.036-1.894-8.856-0.16-10.754,3.882c-1.898,4.041-0.16,8.855,3.883,10.753l14.585,6.85
				c1.11,0.521,2.279,0.767,3.431,0.767c3.037,0,5.947-1.719,7.323-4.65c1.897-4.04,0.16-8.855-3.883-10.754L180.889,397.836z"/>
			<path d="M382.14,397.836l-14.586-6.848c-4.037-1.895-8.855-0.159-10.753,3.882c-1.899,4.042-0.159,8.856,3.881,10.754
				l14.586,6.847c1.111,0.523,2.279,0.77,3.431,0.77c3.037,0,5.948-1.721,7.324-4.65C387.919,404.547,386.18,399.733,382.14,397.836
				z"/>
			<path d="M280.251,382.84l-13.751,8.399c-3.811,2.328-5.013,7.304-2.686,11.113c1.525,2.494,4.183,3.871,6.907,3.871
				c1.436,0,2.892-0.383,4.206-1.187l13.751-8.398c3.811-2.328,5.013-7.304,2.685-11.113
				C289.034,381.715,284.058,380.515,280.251,382.84z"/>
		</g>
	</g>
</g>
<g>
</g>
<g>
</g>
<g>
</g>
<g>
</g>
<g>
</g>
<g>
</g>
<g>
</g>
<g>
</g>
<g>
</g>
<g>
</g>
<g>
</g>
<g>
</g>
<g>
</g>
<g>
</g>
<g>
</g>
</svg>
