<?xml version="1.0" encoding="iso-8859-1"?>
<!-- Generator: Adobe Illustrator 19.0.0, SVG Export Plug-In . SVG Version: 6.00 Build 0)  -->
<svg version="1.1" id="Layer_1" xmlns="http://www.w3.org/2000/svg" xmlns:xlink="http://www.w3.org/1999/xlink" x="0px" y="0px"
	 viewBox="0 0 512.089 512.089" style="enable-background:new 0 0 512.089 512.089;" xml:space="preserve">
<g>
	<g>
		<g>
			<path d="M136.533,153.691c2.185,0,4.369-0.836,6.033-2.5l17.067-17.067c3.337-3.337,3.337-8.73,0-12.066
				c-3.336-3.336-8.73-3.336-12.066,0L130.5,139.125c-3.337,3.336-3.337,8.73,0,12.066
				C132.164,152.855,134.349,153.691,136.533,153.691z"/>
			<path d="M502.153,447.81c-1.545-2.449-178.688-269.073-276.147-366.524c-24.977-24.994-60.476-35.268-95.044-27.477
				c-4.591,1.041-7.475,5.615-6.443,10.206c1.041,4.608,5.606,7.475,10.206,6.451c28.757-6.511,58.385,2.048,79.215,22.886
				c10.035,10.027,20.966,21.965,32.435,35.166c-2.287,4.531-6.81,12.467-13.474,19.14c-3.337,3.337-3.337,8.73,0,12.066
				c1.664,1.664,3.849,2.5,6.033,2.5c2.185,0,4.369-0.836,6.033-2.5c5.709-5.709,10.103-12.075,13.244-17.365
				c26.138,31.061,54.588,67.78,82.313,105.062c-2.176,4.403-6.81,12.749-13.756,19.703c-3.337,3.336-3.337,8.73,0,12.066
				c1.664,1.664,3.849,2.5,6.033,2.5c2.185,0,4.369-0.836,6.033-2.5c5.478-5.478,9.719-11.546,12.834-16.7
				c20.011,27.187,39.373,54.229,56.943,79.155c-2.244,4.489-6.81,12.57-13.577,19.345c-3.337,3.337-3.337,8.73,0,12.066
				c1.664,1.664,3.849,2.5,6.033,2.5c2.185,0,4.369-0.836,6.033-2.5c5.205-5.205,9.293-10.948,12.365-15.94
				c39.595,56.585,67.644,98.824,68.25,99.789c6.238,9.89,11.674,23.663,2.219,33.118c-6.323,6.332-20.548,7.45-32.452-1.758
				c-1.365-1.05-6.246-4.412-18.142-12.578c-42.428-29.141-81.22-56.26-116.591-81.459c4.873-2.995,10.539-7.091,16.085-12.638
				c3.337-3.337,3.337-8.73,0-12.066c-3.336-3.336-8.73-3.336-12.066,0c-7.441,7.441-15.224,11.733-19.388,13.713
				c-28.612-20.514-54.733-39.629-78.362-57.353c4.838-2.987,10.453-7.066,15.949-12.561c3.336-3.337,3.336-8.73,0-12.066
				c-3.337-3.336-8.73-3.336-12.066,0c-7.083,7.074-14.473,11.307-18.765,13.414c-10.172-7.714-19.772-15.104-28.911-22.238
				c5.077-3.038,11.145-7.313,17.075-13.244c3.337-3.337,3.337-8.73,0-12.066c-3.337-3.337-8.73-3.337-12.066,0
				c-7.569,7.561-15.488,11.887-19.601,13.815c-33.673-26.76-59.631-49.169-77.372-66.91
				c-31.317-31.317-33.673-80.614-5.461-114.679c3.004-3.627,2.5-9.011-1.135-12.015c-3.635-3.012-8.994-2.492-12.015,1.126
				c-1.451,1.758-2.739,3.584-4.062,5.402c-24.388-0.486-43.059-4.898-50.799-8.465c4.497-2.313,13.559-5.342,28.075-7.014
				c3.089-0.35,5.726-2.355,6.912-5.222c1.186-2.859,0.725-6.144-1.212-8.567c-9.66-12.151-13.952-21.052-15.309-25.737
				c4.651,1.34,13.474,5.572,25.515,15.113c2.432,1.937,5.709,2.398,8.576,1.195c2.859-1.186,4.855-3.84,5.197-6.912
				c1.664-14.635,4.702-23.782,7.023-28.322c4.096,8.789,9.301,31.01,9.301,56.96c0,4.71,3.814,8.533,8.533,8.533
				s8.533-3.823,8.533-8.533c0-19.925-4.77-76.8-25.967-76.8c-12.595,0-18.961,16.572-22.17,32.119
				c-13.158-8.619-29.235-15.71-38.067-6.878c-8.883,8.883-1.664,25.088,7.066,38.34C16.384,66.89,0,73.256,0,85.783
				c0,11.699,15.309,16.922,26.837,19.831c9.83,2.475,21.7,4.164,33.894,4.924c-17.903,38.178-10.778,84.318,20.463,115.558
				c51.473,51.473,168.713,140.186,348.493,263.663c9.114,6.263,16.324,11.213,17.365,12.023
				c8.815,6.801,19.311,10.214,29.278,10.214c9.796,0,19.063-3.294,25.668-9.907C515.396,488.693,515.456,468.913,502.153,447.81z"
				/>
			<path d="M113.434,202.391c1.664,1.664,3.849,2.5,6.033,2.5s4.369-0.836,6.033-2.5l17.067-17.067c3.337-3.337,3.337-8.73,0-12.066
				s-8.73-3.337-12.066,0l-17.067,17.067C110.097,193.661,110.097,199.054,113.434,202.391z"/>
			<path d="M279.1,245.058l17.067-17.067c3.336-3.336,3.336-8.73,0-12.066c-3.337-3.337-8.73-3.337-12.066,0l-17.067,17.067
				c-3.337,3.337-3.337,8.73,0,12.066c1.664,1.664,3.849,2.5,6.033,2.5C275.251,247.558,277.436,246.722,279.1,245.058z"/>
			<path d="M221.867,247.558c2.185,0,4.369-0.836,6.033-2.5l17.067-17.067c3.336-3.336,3.336-8.73,0-12.066
				c-3.337-3.337-8.73-3.337-12.066,0l-17.067,17.067c-3.337,3.337-3.337,8.73,0,12.066
				C217.498,246.722,219.682,247.558,221.867,247.558z"/>
			<path d="M415.633,432.791l8.533-8.533c3.336-3.337,3.336-8.73,0-12.066c-3.337-3.337-8.73-3.337-12.066,0l-8.533,8.533
				c-3.337,3.337-3.337,8.73,0,12.066c1.664,1.664,3.849,2.5,6.033,2.5C411.785,435.291,413.969,434.455,415.633,432.791z"/>
		</g>
	</g>
</g>
<g>
</g>
<g>
</g>
<g>
</g>
<g>
</g>
<g>
</g>
<g>
</g>
<g>
</g>
<g>
</g>
<g>
</g>
<g>
</g>
<g>
</g>
<g>
</g>
<g>
</g>
<g>
</g>
<g>
</g>
</svg>
